<svg id="Layer_1" data-name="Layer 1" xmlns="http://www.w3.org/2000/svg" viewBox="0 0 1200 480"><path d="M227.42,209.38l-24.79-5.27c-28.6-6.05-41.39-14.47-40.6-28.94.11-13.23,11.1-23,36.45-23,26.58,0,39.14,11.67,40.71,31.29h78.4c-.34-59.21-46-98.47-119.11-98.47-71.67,0-122.36,38.58-121.92,96.12-.22,47.1,32.53,73.35,86,84.79l30.06,6.51c33.53,7.4,45.08,15.81,45.31,29.49-.23,14.92-13.8,25.35-40,25.35-31.41,0-49.91-14.69-51.26-42.4H68.83c.33,75.71,51.59,109.58,130.32,109.58,76.38,0,122.25-33,122.59-92.53C321.4,255.93,294,223.63,227.42,209.38Z" fill="#24346e"/><path d="M451.28,89.15h-115V391H452.51c91.86,0,150.29-56.63,150.29-151S544.37,89.15,451.28,89.15Zm61.46,184a39.51,39.51,0,0,1-9.31,26.13l-.11.12c-10.09,11.44-25.12,17.6-37.57,20.74a114.83,114.83,0,0,1-22.55,3.59l.23-.11h-.34a12.38,12.38,0,0,1-2,.11H420.21a4.07,4.07,0,0,1-4.15-4.15l.23-20.63v-.9l.11-71.44-24.34-3.82a9.14,9.14,0,0,1-7.63-9,9,9,0,0,1,9-9.09,4.25,4.25,0,0,1,1.68.23c23.66,4.6,79.86,12,109.46-14.47a27.33,27.33,0,0,0,4.72-5c-5.16-6.73-20.64-16.82-67.41-16a6.85,6.85,0,0,1-6.84-6.39v-.56a6.69,6.69,0,0,1,7.06-6.73c19.63.79,70.44,4.6,70.66,21.42Z" fill="#24346e"/><path d="M836,155.1V89.15H623.89v301.7h81.87V273H823.08V207H705.76V155.1Z" fill="#f36e21"/><path d="M995.69,323.67c-39.93,0-63.15-28.26-63.15-83.67,0-52.49,22.44-83.67,63.71-83.67,31.52,0,49.46,18.51,51.82,46h83.1C1124.78,127.4,1069.94,85,993.89,85c-81.31,0-145.58,54.17-145.58,155,0,100.38,62.48,155,145.58,155,88.38,0,133.25-61.24,137.28-112.6l-83.1-.56C1044,307.63,1025.75,323.67,995.69,323.67Z" fill="#f36e21"/><path d="M443.2,323.78h-2.13a12.38,12.38,0,0,0,2-.11Z" fill="#fff"/></svg>