<?xml version="1.0" encoding="utf-8"?>
<!-- Generator: Adobe Illustrator 24.1.0, SVG Export Plug-In . SVG Version: 6.00 Build 0)  -->
<svg version="1.1" id="Layer_1" xmlns="http://www.w3.org/2000/svg" xmlns:xlink="http://www.w3.org/1999/xlink" x="0px" y="0px"
	 viewBox="0 0 800 267" style="enable-background:new 0 0 800 267;" xml:space="preserve">
<style type="text/css">
	.st0{fill:#FFFFFF;}
	.st1{fill:#F26E21;}
</style>
<path class="st0" d="M172.1,112.3l-15.2-3.3c-17.5-3.7-25.3-8.9-24.8-17.7c0.1-8.1,6.8-14.1,22.3-14.1c16.3,0,23.9,7.1,24.9,19.1h48
	c-0.2-36.2-28.1-60.2-72.9-60.2c-43.8,0-74.8,23.6-74.6,58.8c-0.1,28.8,19.9,44.9,52.6,51.9l18.4,4c20.5,4.5,27.6,9.7,27.7,18
	c-0.1,9.1-8.4,15.5-24.5,15.5c-19.2,0-30.5-9-31.3-25.9H75.1c0.2,46.3,31.6,67,79.7,67c46.7,0,74.8-20.2,75-56.6
	C229.6,140.7,212.8,121,172.1,112.3z"/>
<path class="st0" d="M309,38.7h-70.3v184.6h71.1c56.2,0,91.9-34.6,91.9-92.4S366,38.7,309,38.7z M346.6,151.3
	c0.1,5.8-1.9,11.5-5.7,16l-0.1,0.1c-6.2,7-15.4,10.8-23,12.7c-4.5,1.2-9.1,1.9-13.8,2.2l0.1-0.1H304c-0.4,0.1-0.8,0.1-1.2,0.1H290
	c-1.4,0-2.5-1.1-2.5-2.4v-0.1l0.1-12.6v-0.5l0.1-43.7l-14.9-2.4c-2.7-0.4-4.7-2.8-4.7-5.5c0-3,2.4-5.5,5.5-5.5l0,0
	c0.3,0,0.7,0,1,0.1c14.5,2.8,48.9,7.3,67-8.9c1.1-0.9,2.1-1.9,2.9-3.1c-3.1-4.1-12.6-10.3-41.2-9.8c-2.2,0-4-1.7-4.2-3.9v-0.3
	c0-2.3,1.8-4.1,4.1-4.1c0.1,0,0.2,0,0.2,0c12,0.5,43.1,2.8,43.2,13.1V151.3z"/>
<path class="st1" d="M544.4,79.1V38.7H414.6v184.6h50.1v-72.1h71.8v-40.3h-71.8V79.1H544.4z"/>
<path class="st1" d="M642.1,182.2c-24.4,0-38.6-17.3-38.6-51.2c0-32.1,13.7-51.2,39-51.2c19.3,0,30.3,11.3,31.7,28.1H725
	c-3.9-45.8-37.5-71.8-84-71.8c-49.7,0-89.1,33.1-89.1,94.8c0,61.4,38.2,94.8,89.1,94.8c54.1,0,81.5-37.5,84-68.9l-50.8-0.3
	C671.6,172.4,660.5,182.2,642.1,182.2z"/>
<path class="st0" d="M304.1,182.2h-1.3C303.2,182.3,303.6,182.2,304.1,182.2L304.1,182.2z"/>
</svg>
