<svg id="Layer_1" data-name="Layer 1" xmlns="http://www.w3.org/2000/svg" viewBox="0 0 1200 680"><text transform="translate(69.59 491.95)" font-size="88.23" fill="#24346e" font-family="Inter-Black, Inter" font-weight="800" letter-spacing="-0.02em">San Diego<tspan x="426.41" y="0" xml:space="preserve" fill="#f36e21"> Fighting C</tspan><tspan x="877.87" y="0" fill="#f36e21" letter-spacing="-0.04em">o</tspan><tspan x="929.75" y="0" fill="#f36e21">vid</tspan></text><text transform="translate(279.41 603.36)" font-size="56.08" fill="#24346e" font-family="Inter-LightBETA, Inter" font-weight="300" letter-spacing="0.06em">#<tspan x="38.79" y="0" letter-spacing="0.02em">sandiegofightingc</tspan><tspan x="526.7" y="0" letter-spacing="0em">o</tspan><tspan x="559.84" y="0" letter-spacing="0.02em">vid</tspan></text><path d="M227.42,183.1l-24.79-5.27c-28.6-6.05-41.39-14.47-40.6-28.93.11-13.24,11.1-23,36.45-23,26.58,0,39.14,11.67,40.71,31.29h78.4c-.34-59.21-46-98.47-119.11-98.47-71.67,0-122.36,38.58-121.92,96.12-.22,47.11,32.53,73.35,86,84.79l30.06,6.51c33.53,7.4,45.08,15.81,45.31,29.49-.23,14.92-13.8,25.35-40,25.35-31.41,0-49.91-14.69-51.26-42.4H68.83c.33,75.71,51.59,109.58,130.32,109.58,76.38,0,122.25-33,122.59-92.53C321.4,229.65,294,197.35,227.42,183.1Z" fill="#24346e"/><path d="M451.28,62.87h-115V364.68H452.51c91.86,0,150.29-56.63,150.29-151S544.37,62.87,451.28,62.87Zm61.46,184c0,9.53-3,19-9.31,26.13l-.11.12c-10.09,11.44-25.12,17.6-37.57,20.74a114.83,114.83,0,0,1-22.55,3.59l.23-.11h-.34a12.38,12.38,0,0,1-2,.11H420.21a4.07,4.07,0,0,1-4.15-4.15l.23-20.63v-.9l.11-71.44-24.34-3.82a9.14,9.14,0,0,1-7.63-9,9,9,0,0,1,9-9.09,4.25,4.25,0,0,1,1.68.23c23.66,4.6,79.86,12,109.46-14.47a27.33,27.33,0,0,0,4.72-5c-5.16-6.72-20.64-16.82-67.41-16a6.86,6.86,0,0,1-6.84-6.4v-.56a6.69,6.69,0,0,1,7.06-6.73c19.63.79,70.44,4.6,70.66,21.42Z" fill="#24346e"/><path d="M836,128.82V62.87H623.89v301.7h81.87V246.7H823.08V180.75H705.76V128.82Z" fill="#f36e21"/><path d="M995.69,297.39c-39.93,0-63.15-28.26-63.15-83.67,0-52.49,22.44-83.67,63.71-83.67,31.52,0,49.46,18.51,51.82,46h83.1c-6.39-74.92-61.23-117.32-137.28-117.32-81.31,0-145.58,54.17-145.58,155,0,100.38,62.48,155,145.58,155,88.38,0,133.25-61.23,137.28-112.6l-83.1-.56C1044,281.35,1025.75,297.39,995.69,297.39Z" fill="#f36e21"/><path d="M443.2,297.5h-2.13a12.38,12.38,0,0,0,2-.11Z" fill="#fff"/></svg>