<svg id="Layer_1" data-name="Layer 1" xmlns="http://www.w3.org/2000/svg" viewBox="0 0 1200 680"><path d="M99.66,441.2c-5.38,0-7.73,2.07-7.76,4.89-.16,3.07,2.56,4.85,8.64,6.14l5.26,1.12c14.16,3,20,9.9,20,19.68-.06,12.65-9.8,19.67-26.06,19.67-16.73,0-27.63-7.21-27.69-23.31H88.64c.28,5.89,4.23,9,10.9,9,5.58,0,8.46-2.22,8.52-5.38-.06-2.92-2.51-4.7-9.65-6.27L92,465.38c-11.37-2.44-18.32-8-18.29-18-.1-12.22,10.68-20.43,25.93-20.43,15.54,0,25.25,8.34,25.32,20.93H108.31C108,443.67,105.3,441.2,99.66,441.2Z" fill="#24346e"/><path d="M128.74,478.67c0-10.56,7.74-14.57,17.67-15.29,8.08-.6,11.15-1.47,11.15-4.26V459c0-2.5-2.13-3.88-5.14-3.88-3.29,0-5.48,1.41-5.89,4.38H130.62c.59-8.77,7.67-16.29,22-16.29,13.75,0,22.18,6.9,22.18,15.79v33H158.69v-6.77h-.38c-2.91,5.39-7.64,7.52-13.91,7.52C135.19,492.7,128.74,488.25,128.74,478.67Zm28.94-3.76v-4a31.38,31.38,0,0,1-6.89,1.75c-4,.63-5.76,2.54-5.76,5,0,2.7,2.07,4.14,5,4.14C154,481.8,157.68,479.29,157.68,474.91Z" fill="#24346e"/><path d="M198.66,492H181.37V443.83h16.41V453h.5c2.1-6.08,7.71-9.78,14.79-9.78,10.21,0,16.82,7.59,16.79,18.05V492H212.57V464.88c0-4.76-2.54-7.64-6.89-7.64s-7,2.88-7,7.64Z" fill="#24346e"/><path d="M252.16,492V427.79h24.43c19.8,0,32.21,12,32.21,32.08S296.39,492,276.84,492Zm24.06-14.79c9.52,0,15-3.88,15-17.29s-5.51-17.29-15.53-17.29h-6.14v34.58Z" fill="#24346e"/><path d="M315.32,443.83h17.29V492H315.32Zm.12-12.91c0-4.35,3.82-7.89,8.52-7.89s8.52,3.54,8.52,7.89-3.82,7.9-8.52,7.9S315.44,435.28,315.44,430.92Z" fill="#24346e"/><path d="M337.87,468c0-14.91,9.52-24.81,24.43-24.81,14.54,0,23.93,9.37,23.93,24.69v4H354.91v.75c0,4.64,3,8,8.14,8,3.54,0,6.39-1.53,7.4-4.26h15.78c-1.63,10-10.21,16.41-23.55,16.41C347.26,492.82,337.87,483.58,337.87,468Zm32.45-5.63c-.09-4.14-3.35-7-7.64-7s-7.68,2.85-7.77,7Z" fill="#24346e"/><path d="M391.12,495.08h16.67c.5,2.57,3.41,3.76,7.39,3.76,4.48,0,7.77-1.85,7.77-7v-8.14h-.5c-1.88,4.88-7,7.64-13.54,7.64-10.27,0-18.92-6.77-18.92-23.43,0-17.42,9.28-24.69,18.8-24.69a13.87,13.87,0,0,1,13.53,9h.38v-8.4H440v48c0,11.72-10.09,18.67-25.31,18.67C400.21,510.49,391.78,503.85,391.12,495.08ZM423,467.89c0-7.14-2.88-11.4-7.64-11.4s-7.52,4.26-7.52,11.4S410.54,479,415.31,479,423,474.91,423,467.89Z" fill="#24346e"/><path d="M445.26,468c0-14.78,9.27-24.81,24.93-24.81s24.94,10,24.94,24.81-9.27,24.81-24.94,24.81S445.26,482.8,445.26,468Zm32.2-.12c0-7.55-2.76-12.16-7.14-12.16-4.64,0-7.4,4.61-7.4,12.16s2.76,12.15,7.4,12.15C474.7,480,477.46,475.44,477.46,467.89Z" fill="#24346e"/><path d="M515.92,427.79H561v14H533.34v11h24.94v14H533.34V492H515.92Z" fill="#f36e21"/><path d="M565.92,443.83h17.29V492H565.92Zm.12-12.91c0-4.35,3.83-7.89,8.53-7.89s8.52,3.54,8.52,7.89-3.83,7.9-8.52,7.9S566,435.28,566,430.92Z" fill="#f36e21"/><path d="M589.85,495.08h16.66c.5,2.57,3.42,3.76,7.4,3.76,4.48,0,7.76-1.85,7.76-7v-8.14h-.5c-1.88,4.88-7,7.64-13.53,7.64-10.27,0-18.92-6.77-18.92-23.43,0-17.42,9.27-24.69,18.8-24.69a13.87,13.87,0,0,1,13.53,9h.37v-8.4h17.3v48c0,11.72-10.09,18.67-25.31,18.67C598.93,510.49,590.51,503.85,589.85,495.08Zm31.82-27.19c0-7.14-2.88-11.4-7.64-11.4s-7.52,4.26-7.52,11.4S609.27,479,614,479,621.67,474.91,621.67,467.89Z" fill="#f36e21"/><path d="M663,492H645.74V427.79H662.4V453h.5c2.16-6.14,7.43-9.78,14.54-9.78,10.18,0,16.82,7.52,16.79,18.05V492H676.94V464.88c0-4.76-2.48-7.64-6.89-7.64-4.23,0-7,2.88-7,7.64Z" fill="#f36e21"/><path d="M729.69,456.36h-8.27v20.11c0,2,1,3,3.26,3a18.13,18.13,0,0,0,3.38-.5l2.51,12.15a35.36,35.36,0,0,1-8.4,1.51c-11.93.66-18.17-4.45-18-14.54V456.36H698V443.83h6.14V432.3h17.29v11.53h8.27Z" fill="#f36e21"/><path d="M735,443.83h17.29V492H735Zm.13-12.91c0-4.35,3.82-7.89,8.52-7.89s8.52,3.54,8.52,7.89-3.82,7.9-8.52,7.9S735.08,435.28,735.08,430.92Z" fill="#f36e21"/><path d="M776.55,492H759.26V443.83h16.41V453h.5c2.1-6.08,7.71-9.78,14.79-9.78,10.21,0,16.82,7.59,16.79,18.05V492H790.46V464.88c0-4.76-2.54-7.64-6.89-7.64s-7,2.88-7,7.64Z" fill="#f36e21"/><path d="M814.14,495.08h16.67c.5,2.57,3.41,3.76,7.39,3.76,4.48,0,7.77-1.85,7.77-7v-8.14h-.5c-1.88,4.88-7,7.64-13.54,7.64-10.27,0-18.92-6.77-18.92-23.43,0-17.42,9.28-24.69,18.8-24.69a13.87,13.87,0,0,1,13.53,9h.38v-8.4H863v48c0,11.72-10.09,18.67-25.31,18.67C823.23,510.49,814.8,503.85,814.14,495.08ZM846,467.89c0-7.14-2.88-11.4-7.65-11.4s-7.51,4.26-7.51,11.4S833.56,479,838.32,479,846,474.91,846,467.89Z" fill="#f36e21"/><path d="M927.79,451.85c-.5-5.83-4.33-9.77-11-9.77-8.77,0-13.53,6.64-13.53,17.79,0,11.78,4.92,17.79,13.41,17.79,6.39,0,10.27-3.41,11.15-8.89l17.67.12c-.88,10.9-10.4,23.93-29.2,23.93-17.67,0-31-11.62-31-32.95s13.66-33,31-33c16.16,0,27.82,9,29.2,24.94Z" fill="#f36e21"/><path d="M950.1,468c0-14.78,9.27-24.81,24.93-24.81S1000,453.23,1000,468s-9.28,24.81-24.94,24.81S950.1,482.8,950.1,468Zm32.2-.12c0-7.55-2.76-12.16-7.14-12.16-4.64,0-7.4,4.61-7.4,12.16s2.76,12.15,7.4,12.15C979.54,480,982.3,475.44,982.3,467.89Z" fill="#f36e21"/><path d="M1036.06,492h-20l-16.17-48.12H1018l7.77,31.83h.5l7.77-31.83h18.17Z" fill="#f36e21"/><path d="M1055.35,443.83h17.3V492h-17.3Zm.13-12.91c0-4.35,3.82-7.89,8.52-7.89s8.52,3.54,8.52,7.89-3.82,7.9-8.52,7.9S1055.48,435.28,1055.48,430.92Z" fill="#f36e21"/><path d="M1078.16,467.89c0-17.42,9.27-24.69,18.79-24.69a13.87,13.87,0,0,1,13.53,9h.25V427.79H1128V492h-17.17v-7.9h-.38c-2,4.89-6.64,8.52-13.4,8.52C1086.8,492.57,1078.16,484.55,1078.16,467.89Zm32.95,0c0-7.14-2.88-11.4-7.64-11.4s-7.52,4.26-7.52,11.4,2.75,11.4,7.52,11.4S1111.11,474.91,1111.11,467.89Z" fill="#f36e21"/><path d="M301.33,591.59H290.08l-1.93,11.77h-3.09L287,591.59h-6.53l.52-3.07h6.51l1.83-11.11h-6.49l.5-3.07h6.49l1.93-11.76h3.09l-1.93,11.76h11.25l1.93-11.76h3.09l-1.94,11.76h6.52l-.5,3.07h-6.51l-1.84,11.11h6.5l-.52,3.07h-6.47l-1.93,11.77H299.4Zm.5-3.07,1.83-11.11H292.41l-1.83,11.11Z" fill="#24346e"/><path d="M340.18,580.4c-.95-2.75-3-4.92-7.11-4.92s-7.09,2.17-7.09,5.28c0,2.64,1.78,4.18,5.58,5.13l4.62,1.14c5.12,1.25,7.69,4,7.69,8.06,0,5.2-4.62,8.9-11.35,8.9-6,0-10-2.76-11.12-7.86l3.41-.84c.85,3.63,3.46,5.52,7.65,5.52,4.7,0,7.74-2.37,7.74-5.56,0-2.45-1.61-4.18-5-5l-5-1.19c-5.32-1.28-7.81-4.06-7.81-8.16,0-5,4.48-8.57,10.65-8.57,5.6,0,8.86,2.71,10.36,7.13Z" fill="#24346e"/><path d="M351.24,594.81c0-6,4.84-8,11.75-8.84,5.14-.63,8-.67,8-3v-.72c0-4.18-2.57-6.73-7.21-6.73-4.42,0-7.19,2.25-8.31,4.88l-3.36-1.22c2.07-5,6.89-6.85,11.57-6.85s10.85,2,10.85,10.24v20.77H371v-4.84h-.22c-1.28,2.71-4.38,5.53-9.48,5.53C355.74,604.05,351.24,600.71,351.24,594.81ZM371,591.63v-4.42c-1,1-5.5,1.57-8,1.87-5.18.64-8.2,2.19-8.2,5.89s3,5.84,7,5.84A8.89,8.89,0,0,0,371,591.63Z" fill="#24346e"/><path d="M388.63,603.36h-3.55V572.77h3.45v4.8h.32c1.43-3.13,4.52-5.2,9-5.2,6.17,0,10.37,3.93,10.37,11.17v19.82h-3.54v-19.6c0-5-3-8.14-7.73-8.14s-8.32,3.28-8.32,8.62Z" fill="#24346e"/><path d="M417.13,588.14c0-9.42,5.1-15.79,12.65-15.79a9.65,9.65,0,0,1,9.33,6.26h.32v-16H443v40.78h-3.47v-5.68h-.42c-1.25,2.79-3.84,6.31-9.39,6.31C422.21,604,417.13,597.64,417.13,588.14Zm22.36-.06c0-7.32-3.38-12.5-9.36-12.5s-9.43,5.45-9.43,12.5,3.34,12.67,9.43,12.67S439.49,595.47,439.49,588.08Z" fill="#24346e"/><path d="M453.42,565a2.66,2.66,0,1,1,2.65,2.55A2.61,2.61,0,0,1,453.42,565Zm.84,7.81h3.56v30.59h-3.56Z" fill="#24346e"/><path d="M466.77,588.24c0-9.26,5.47-15.89,13.4-15.89,6.63,0,12.94,4.8,12.94,15v1.75H470.33c.16,7.07,4.13,11.63,10.38,11.63,4.34,0,7.11-2.27,8.28-5l3.37,1.1c-1.4,3.84-5.52,7.16-11.65,7.16C472.15,604,466.77,597.52,466.77,588.24ZM489.49,586c0-5.89-3.84-10.41-9.32-10.41s-9.44,4.72-9.82,10.41Z" fill="#24346e"/><path d="M501.74,609.33l2.91-1.91c1.3,2.33,3.81,4.86,9,4.86,5.42,0,9.06-2.65,9.06-8.35V597h-.32a9.59,9.59,0,0,1-9.39,6c-7.33,0-12.59-5.68-12.59-15.06s5.08-15.63,12.65-15.63c5.61,0,8.14,3.51,9.39,6.26h.36v-5.84h3.47v31.38c0,7.77-5.38,11.31-12.63,11.31C507.44,615.46,503.54,612.84,501.74,609.33Zm21.07-21.41c0-7.16-3.36-12.34-9.36-12.34S504,581,504,587.92s3.36,11.87,9.43,11.87C519.35,599.79,522.81,595.31,522.81,587.92Z" fill="#24346e"/><path d="M535.27,588.2c0-9.38,5.53-15.85,13.46-15.85s13.46,6.47,13.46,15.85S556.65,604,548.73,604,535.27,597.52,535.27,588.2Zm23.35,0c0-6.85-3.54-12.62-9.89-12.62s-9.9,5.77-9.9,12.62,3.54,12.55,9.9,12.55S558.62,595.05,558.62,588.2Z" fill="#24346e"/><path d="M583.68,575.86h-6.77v27.5h-3.56v-27.5h-4.7v-3.09h4.7v-4.3c0-4.94,3.9-7.59,8.06-7.59a9.58,9.58,0,0,1,3.79.68l-1,3.11a6.81,6.81,0,0,0-2.43-.44c-3.08,0-4.82,1.77-4.82,5v3.56h6.77Z" fill="#24346e"/><path d="M591.1,565a2.66,2.66,0,1,1,2.65,2.55A2.61,2.61,0,0,1,591.1,565Zm.84,7.81h3.56v30.59h-3.56Z" fill="#24346e"/><path d="M605.74,609.33l2.91-1.91c1.29,2.33,3.8,4.86,9,4.86,5.42,0,9.06-2.65,9.06-8.35V597h-.32a9.6,9.6,0,0,1-9.4,6c-7.33,0-12.58-5.68-12.58-15.06s5.08-15.63,12.64-15.63c5.62,0,8.15,3.51,9.4,6.26h.36v-5.84h3.46v31.38c0,7.77-5.37,11.31-12.62,11.31C611.44,615.46,607.53,612.84,605.74,609.33Zm21.07-21.41c0-7.16-3.37-12.34-9.36-12.34S608,581,608,587.92s3.37,11.87,9.44,11.87C623.34,599.79,626.81,595.31,626.81,587.92Z" fill="#24346e"/><path d="M644.38,603.36h-3.54V562.58h3.54v15h.32c1.43-3.17,4.44-5.2,9.06-5.2,6.21,0,10.43,3.89,10.43,11.17v19.82h-3.56v-19.6c0-5-3-8.14-7.77-8.14s-8.48,3.28-8.48,8.62Z" fill="#24346e"/><path d="M686.72,575.86h-6.47v19.51c0,3.84,2.21,5,4.62,5a7.17,7.17,0,0,0,2.07-.28l.76,3.21a8.55,8.55,0,0,1-3.15.53c-3.92,0-7.86-2.6-7.86-7.6V575.86h-4.56v-3.09h4.56v-7.33h3.56v7.33h6.47Z" fill="#24346e"/><path d="M695.09,565a2.66,2.66,0,1,1,2.65,2.55A2.61,2.61,0,0,1,695.09,565Zm.84,7.81h3.56v30.59h-3.56Z" fill="#24346e"/><path d="M713.56,603.36H710V572.77h3.44v4.8h.32c1.43-3.13,4.52-5.2,9-5.2,6.17,0,10.38,3.93,10.38,11.17v19.82h-3.55v-19.6c0-5-3-8.14-7.72-8.14s-8.33,3.28-8.33,8.62Z" fill="#24346e"/><path d="M743.36,609.33l2.91-1.91c1.29,2.33,3.8,4.86,9,4.86,5.41,0,9.06-2.65,9.06-8.35V597h-.32a9.61,9.61,0,0,1-9.4,6c-7.33,0-12.58-5.68-12.58-15.06s5.07-15.63,12.64-15.63c5.61,0,8.14,3.51,9.4,6.26h.36v-5.84h3.46v31.38c0,7.77-5.37,11.31-12.62,11.31C749.05,615.46,745.15,612.84,743.36,609.33Zm21.07-21.41c0-7.16-3.37-12.34-9.36-12.34s-9.44,5.45-9.44,12.34,3.36,11.87,9.44,11.87C761,599.79,764.43,595.31,764.43,587.92Z" fill="#24346e"/><path d="M776.88,588.2c0-9.2,5.46-15.85,13.46-15.85,6.14,0,10.87,3.83,11.71,9.5h-3.58a8,8,0,0,0-8.07-6.27c-5.87,0-9.95,5.1-9.95,12.5s4,12.67,9.95,12.67a7.87,7.87,0,0,0,8.09-6.31h3.58c-.82,5.53-5.3,9.55-11.67,9.55C782.18,604,776.88,597.32,776.88,588.2Z" fill="#24346e"/><path d="M809.21,588.2c0-9.38,5.53-15.85,13.46-15.85s13.46,6.47,13.46,15.85S830.59,604,822.67,604,809.21,597.52,809.21,588.2Zm23.36,0c0-6.85-3.55-12.62-9.9-12.62s-9.9,5.77-9.9,12.62,3.55,12.55,9.9,12.55S832.57,595.05,832.57,588.2Z" fill="#24346e"/><path d="M856.43,603.36h-3.78l-11.17-30.59h3.84l9.08,25.91h.28l9.08-25.91h3.84Z" fill="#24346e"/><path d="M874.84,565a2.66,2.66,0,1,1,2.65,2.55A2.61,2.61,0,0,1,874.84,565Zm.84,7.81h3.56v30.59h-3.56Z" fill="#24346e"/><path d="M888.19,588.14c0-9.42,5.09-15.79,12.64-15.79a9.65,9.65,0,0,1,9.34,6.26h.32v-16h3.56v40.78h-3.46v-5.68h-.42c-1.25,2.79-3.84,6.31-9.4,6.31C893.27,604,888.19,597.64,888.19,588.14Zm22.36-.06c0-7.32-3.39-12.5-9.36-12.5-6.13,0-9.44,5.45-9.44,12.5s3.35,12.67,9.44,12.67C907.12,600.75,910.55,595.47,910.55,588.08Z" fill="#24346e"/><path d="M227.42,183.1l-24.79-5.27c-28.6-6.05-41.39-14.47-40.6-28.93.11-13.24,11.1-23,36.45-23,26.58,0,39.14,11.67,40.71,31.29h78.4c-.34-59.21-46-98.47-119.11-98.47-71.67,0-122.36,38.58-121.92,96.12-.22,47.11,32.53,73.35,86,84.79l30.06,6.51c33.53,7.4,45.08,15.81,45.31,29.49-.23,14.92-13.8,25.35-40,25.35-31.41,0-49.91-14.69-51.26-42.4H68.83c.33,75.71,51.59,109.58,130.32,109.58,76.38,0,122.25-33,122.59-92.53C321.4,229.65,294,197.35,227.42,183.1Z" fill="#24346e"/><path d="M451.28,62.87h-115V364.68H452.51c91.86,0,150.29-56.63,150.29-151S544.37,62.87,451.28,62.87Zm61.46,184c0,9.53-3,19-9.31,26.13l-.11.12c-10.09,11.44-25.12,17.6-37.57,20.74a114.83,114.83,0,0,1-22.55,3.59l.23-.11h-.34a12.38,12.38,0,0,1-2,.11H420.21a4.07,4.07,0,0,1-4.15-4.15l.23-20.63v-.9l.11-71.44-24.34-3.82a9.14,9.14,0,0,1-7.63-9,9,9,0,0,1,9-9.09,4.25,4.25,0,0,1,1.68.23c23.66,4.6,79.86,12,109.46-14.47a27.33,27.33,0,0,0,4.72-5c-5.16-6.72-20.64-16.82-67.41-16a6.86,6.86,0,0,1-6.84-6.4v-.56a6.69,6.69,0,0,1,7.06-6.73c19.63.79,70.44,4.6,70.66,21.42Z" fill="#24346e"/><path d="M836,128.82V62.87H623.89v301.7h81.87V246.7H823.08V180.75H705.76V128.82Z" fill="#f36e21"/><path d="M995.69,297.39c-39.93,0-63.15-28.26-63.15-83.67,0-52.49,22.44-83.67,63.71-83.67,31.52,0,49.46,18.51,51.82,46h83.1c-6.39-74.92-61.23-117.32-137.28-117.32-81.31,0-145.58,54.17-145.58,155,0,100.38,62.48,155,145.58,155,88.38,0,133.25-61.23,137.28-112.6l-83.1-.56C1044,281.35,1025.75,297.39,995.69,297.39Z" fill="#f36e21"/><path d="M443.2,297.5h-2.13a12.38,12.38,0,0,0,2-.11Z" fill="#fff"/></svg>