<svg id="Layer_1" data-name="Layer 1" xmlns="http://www.w3.org/2000/svg" viewBox="0 0 24 24"><g id="pnHRsM.tif"><path d="M24,4.57a8.21,8.21,0,0,1-2,2.11,1,1,0,0,0-.43.89A14.11,14.11,0,0,1,.3,19.91l-.23-.14A.93.93,0,0,0,0,19.64a10.1,10.1,0,0,0,7.18-2.07,5.13,5.13,0,0,1-4.64-3.46H4.62l0-.13a5.09,5.09,0,0,1-2.76-1.76A4.83,4.83,0,0,1,.8,9.17l2.09.58A.75.75,0,0,0,3,9.63a5.11,5.11,0,0,1-2-3A5,5,0,0,1,1.5,3.05,14.27,14.27,0,0,0,11.73,8.23c0-.13,0-.24,0-.35A5,5,0,0,1,20,3.39a.73.73,0,0,0,.83.18l2.57-.93a5,5,0,0,1-2,2.52l.06.11Z" fill="#f26e21"/></g></svg>